<svg width="123.699951171875px" height="124.42252197265624px" xmlns="http://www.w3.org/2000/svg" viewBox="188.1500244140625 12.78873901367188 123.699951171875 124.42252197265624" style="background: rgba(0, 0, 0, 0);" preserveAspectRatio="xMidYMid"><defs><linearGradient id="editing-outline-gradient" x1="-0.41354545764260087" x2="1.4135454576426008" y1="0.09326335692419985" y2="0.9067366430758002"><stop offset="0" stop-color="#ee4208"></stop><stop offset="1" stop-color="#4139ff"></stop></linearGradient><filter id="editing-outline" x="-100%" y="-100%" width="300%" height="300%"><feMorphology in="SourceGraphic" operator="dilate" radius="1" result="outline"></feMorphology><feComposite operator="out" in="outline" in2="SourceAlpha"></feComposite></filter></defs><g filter="url(#editing-outline)"><g transform="translate(211.44000029563904, 91.70499992370605)"><path d="M23.68-2.24L23.68-2.24Q21.38-0.77 18.43 0L18.43 0L18.43 0Q15.49 0.77 12.54 0.77L12.54 0.77L12.54 0.77Q7.81 0.77 5.02-1.57L5.02-1.57L5.02-1.57Q2.24-3.90 2.24-8.58L2.24-8.58L2.24-21.70L2.24-21.70Q2.24-26.88 5.47-29.76L5.47-29.76L5.47-29.76Q8.70-32.64 14.02-32.64L14.02-32.64L14.02-32.64Q19.33-32.64 22.30-29.79L22.30-29.79L22.30-29.79Q25.28-26.94 25.28-21.89L25.28-21.89L25.28-13.57L5.82-12.48L5.82-8.58L5.82-8.58Q5.82-5.50 7.81-3.97L7.81-3.97L7.81-3.97Q9.79-2.43 12.99-2.43L12.99-2.43L12.99-2.43Q17.47-2.43 22.27-4.99L22.27-4.99L23.68-2.24ZM21.70-22.34L21.70-22.34Q21.70-26.30 19.20-27.94L19.20-27.94L19.20-27.94Q16.70-29.57 13.95-29.57L13.95-29.57L13.95-29.57Q10.43-29.57 8.13-27.65L8.13-27.65L8.13-27.65Q5.82-25.73 5.82-21.63L5.82-21.63L5.82-16L21.70-16.77L21.70-22.34ZM31.68 0L31.68-32.06L35.26-32.06L35.07-29.82L35.07-29.82Q38.08-32.64 42.94-32.64L42.94-32.64L42.94-32.64Q44.67-32.64 47.68-32.06L47.68-32.06L46.72-28.80L46.72-28.80Q44.67-29.44 42.43-29.44L42.43-29.44L42.43-29.44Q39.49-29.44 37.38-28.35L37.38-28.35L37.38-28.35Q35.26-27.26 35.26-25.09L35.26-25.09L35.26 0L31.68 0ZM60.03 0L50.24-32.06L54.02-32.06L62.53-3.71L71.10-32.06L74.88-32.06L64.96 0L60.03 0Z" fill="url(#editing-outline-gradient)"></path></g></g><style>text {
  font-size: 64px;
  font-family: Arial Black;
  dominant-baseline: central;
  text-anchor: middle;
}</style></svg>